<mxfile host="app.diagrams.net" modified="2023-11-17T11:40:02.421Z" agent="Mozilla/5.0 (Macintosh; Intel Mac OS X 10_15_7) AppleWebKit/537.36 (KHTML, like Gecko) Chrome/119.0.0.0 Safari/537.36" etag="K18NEtyvw6cbfUtvlgyp" version="22.1.2" type="github">
  <diagram name="Page-1" id="YVAAPBM7fdxGEQpUWvqQ">
    <mxGraphModel dx="984" dy="630" grid="1" gridSize="10" guides="1" tooltips="1" connect="1" arrows="1" fold="1" page="1" pageScale="1" pageWidth="827" pageHeight="1169" math="0" shadow="0">
      <root>
        <mxCell id="0" />
        <mxCell id="1" parent="0" />
        <mxCell id="Zbop_DpolJmUpwJnHtxU-6" style="edgeStyle=orthogonalEdgeStyle;rounded=0;orthogonalLoop=1;jettySize=auto;html=1;" parent="1" source="Zbop_DpolJmUpwJnHtxU-2" target="Zbop_DpolJmUpwJnHtxU-3" edge="1">
          <mxGeometry relative="1" as="geometry" />
        </mxCell>
        <mxCell id="Zbop_DpolJmUpwJnHtxU-2" value="BackBlaze" style="sketch=0;outlineConnect=0;fontColor=#232F3E;gradientColor=none;fillColor=#7AA116;strokeColor=none;dashed=0;verticalLabelPosition=bottom;verticalAlign=top;align=center;html=1;fontSize=12;fontStyle=0;aspect=fixed;pointerEvents=1;shape=mxgraph.aws4.bucket;" parent="1" vertex="1">
          <mxGeometry x="324.5" y="310" width="75" height="78" as="geometry" />
        </mxCell>
        <mxCell id="Zbop_DpolJmUpwJnHtxU-11" style="edgeStyle=orthogonalEdgeStyle;rounded=0;orthogonalLoop=1;jettySize=auto;html=1;" parent="1" source="Zbop_DpolJmUpwJnHtxU-3" target="Zbop_DpolJmUpwJnHtxU-9" edge="1">
          <mxGeometry relative="1" as="geometry" />
        </mxCell>
        <mxCell id="Zbop_DpolJmUpwJnHtxU-3" value="Spaces w3Schools" style="sketch=0;pointerEvents=1;shadow=0;dashed=0;html=1;strokeColor=none;fillColor=#505050;labelPosition=center;verticalLabelPosition=bottom;verticalAlign=top;outlineConnect=0;align=center;shape=mxgraph.office.servers.mainframe_host;" parent="1" vertex="1">
          <mxGeometry x="330" y="140" width="64" height="51" as="geometry" />
        </mxCell>
        <mxCell id="Zbop_DpolJmUpwJnHtxU-10" style="edgeStyle=orthogonalEdgeStyle;rounded=0;orthogonalLoop=1;jettySize=auto;html=1;" parent="1" source="Zbop_DpolJmUpwJnHtxU-9" target="Zbop_DpolJmUpwJnHtxU-3" edge="1">
          <mxGeometry relative="1" as="geometry" />
        </mxCell>
        <mxCell id="Zbop_DpolJmUpwJnHtxU-12" style="edgeStyle=orthogonalEdgeStyle;rounded=0;orthogonalLoop=1;jettySize=auto;html=1;" parent="1" source="Zbop_DpolJmUpwJnHtxU-9" target="Zbop_DpolJmUpwJnHtxU-2" edge="1">
          <mxGeometry relative="1" as="geometry">
            <mxPoint x="362" y="324.5" as="targetPoint" />
            <mxPoint x="130" y="180" as="sourcePoint" />
            <Array as="points">
              <mxPoint x="115" y="350" />
            </Array>
          </mxGeometry>
        </mxCell>
        <mxCell id="Zbop_DpolJmUpwJnHtxU-9" value="User&lt;br&gt;" style="shape=umlActor;verticalLabelPosition=bottom;verticalAlign=top;html=1;outlineConnect=0;" parent="1" vertex="1">
          <mxGeometry x="100" y="135.5" width="30" height="60" as="geometry" />
        </mxCell>
      </root>
    </mxGraphModel>
  </diagram>
</mxfile>
